<svg width="16" height="16" viewBox="0 0 16 16" fill="none" xmlns="http://www.w3.org/2000/svg">
<g clip-path="url(#clip0_60_3941)">
<g clip-path="url(#clip1_60_3941)">
<path d="M3.77532 7.94995C2.96407 7.94995 2.37532 8.47495 2.37532 9.19839C2.37532 9.92183 2.96407 10.4468 3.77532 10.4468L4.0922 10.45C5.31751 10.45 5.50032 9.82183 5.50032 9.44745C5.50001 8.6762 4.52845 7.94995 3.77532 7.94995ZM4.0922 9.69995C3.98251 9.69995 3.87282 9.69683 3.77532 9.69683C3.38532 9.69683 3.12532 9.49745 3.12532 9.19839C3.12532 8.89933 3.38532 8.69995 3.77532 8.69995C4.16532 8.69995 4.75032 9.1487 4.75032 9.44776C4.75032 9.67183 4.42095 9.69995 4.0922 9.69995ZM12.2247 7.94995C11.4716 7.94995 10.5 8.6762 10.5 9.44776C10.5 9.82214 10.6828 10.4503 11.9081 10.4503L12.225 10.4471C13.0363 10.4471 13.625 9.92214 13.625 9.1987C13.6247 8.47495 13.0359 7.94995 12.2247 7.94995ZM12.2247 9.69683C12.1272 9.69683 12.0175 9.69995 11.9078 9.69995C11.5788 9.69995 11.2497 9.67183 11.2497 9.44776C11.2497 9.1487 11.8347 8.69995 12.2247 8.69995C12.6147 8.69995 12.8747 8.89933 12.8747 9.19839C12.8747 9.49745 12.6147 9.69683 12.2247 9.69683ZM15.8122 5.29245C15.5828 4.9212 15.1853 4.69964 14.7488 4.69964H13.1969L12.9447 3.92589C12.6094 2.89651 11.65 2.19995 10.5678 2.19995H5.4322C4.3497 2.19995 3.39064 2.89651 3.05532 3.92558L2.80313 4.69933H1.25126C0.814698 4.69933 0.417198 4.92089 0.187823 5.29214C-0.0415525 5.66339 -0.0621775 6.11776 0.133135 6.50808L0.31376 6.87089C0.43751 7.11714 0.62376 7.3112 0.84501 7.45058C0.629073 7.81745 0.500323 8.24183 0.500323 8.69964V12.7C0.500323 13.5271 1.17314 14.2 2.00032 14.2H2.50032C3.32751 14.2 4.00032 13.5271 4.00032 12.7V12.2H12V12.7C12 13.5271 12.6728 14.2 13.5 14.2H14C14.8272 14.2 15.5 13.5271 15.5 12.7V8.69964C15.5 8.24151 15.3713 7.81745 15.1553 7.45026C15.3769 7.31089 15.5628 7.11651 15.6866 6.86995L15.8672 6.5087C16.0622 6.11808 16.0416 5.66339 15.8122 5.29245ZM4.00626 4.23558C4.20814 3.6162 4.78126 3.19995 5.43251 3.19995H10.5678C11.2191 3.19995 11.7922 3.6162 11.9941 4.23526L12.6338 6.19933H3.36657L4.00626 4.23558ZM1.20845 6.4237L1.02782 6.06151C0.97126 5.94933 1.0172 5.85401 1.03845 5.81839C1.06563 5.77401 1.13032 5.69964 1.25126 5.69964H2.47751L2.27595 6.31901C2.01899 6.39756 1.77624 6.51666 1.55689 6.67183C1.4097 6.64058 1.27751 6.56183 1.20845 6.4237ZM3.00032 12.7C3.00032 12.9759 2.77564 13.2 2.50032 13.2H2.00032C1.72501 13.2 1.50032 12.9759 1.50032 12.7V12.2H3.00032V12.7ZM14.4997 12.7C14.4997 12.9759 14.275 13.2 13.9997 13.2H13.4997C13.2244 13.2 12.9997 12.9759 12.9997 12.7V12.2H14.4997V12.7ZM14.4997 10.1996V11.1996H1.50032V8.69964C1.50032 7.87245 2.17314 7.19964 3.00032 7.19964H12.9997C13.8269 7.19964 14.4997 7.87245 14.4997 8.69964V10.1996ZM14.9722 6.06183L14.7916 6.42276C14.7225 6.56151 14.5903 6.64058 14.4431 6.67183C14.2263 6.5187 13.9841 6.39808 13.7241 6.31901L13.5225 5.69964H14.7488C14.8697 5.69964 14.9344 5.77401 14.9616 5.81839C14.9831 5.85401 15.0291 5.94901 14.9722 6.06183Z" fill="#585858"/>
</g>
</g>
<defs>
<clipPath id="clip0_60_3941">
<rect width="16" height="16" fill="white"/>
</clipPath>
<clipPath id="clip1_60_3941">
<rect width="16" height="16" fill="white" transform="translate(0 0.199951)"/>
</clipPath>
</defs>
</svg>
