<svg width="16" height="16" viewBox="0 0 16 16" fill="none" xmlns="http://www.w3.org/2000/svg">
<g clip-path="url(#clip0_60_4390)">
<path d="M3.8295 5.66122L4.46225 5.17222L3.57175 4.11247L4.90675 3.07097C5.03423 2.96761 5.18128 2.89108 5.33907 2.84597C5.49687 2.80086 5.66215 2.78811 5.825 2.80847C6.00655 2.83099 6.18172 2.8898 6.34007 2.98141C6.49843 3.07302 6.63673 3.19556 6.74675 3.34172L7.3795 2.85272C7.2047 2.62193 6.98521 2.42872 6.73411 2.28461C6.48301 2.14051 6.20545 2.04846 5.918 2.01397C5.65067 1.98193 5.37963 2.00352 5.12074 2.07748C4.86185 2.15144 4.62031 2.27629 4.41025 2.44472L3.075 3.48572C2.76175 3.73897 2.711 4.21072 2.9625 4.53572L3.8295 5.66122ZM9.35825 7.34472C9.57078 7.51329 9.83399 7.60517 10.1053 7.60547H11.6C11.9183 7.60547 12.2235 7.47904 12.4485 7.254C12.6736 7.02896 12.8 6.72373 12.8 6.40547C12.8 6.08721 12.6736 5.78199 12.4485 5.55694C12.2235 5.3319 11.9183 5.20547 11.6 5.20547H10.5265L9.9935 4.77922C10.0619 4.79018 10.1308 4.79711 10.2 4.79997C10.5869 4.80036 10.9637 4.67617 11.2746 4.44579C11.5854 4.21541 11.8139 3.89107 11.9261 3.52078C12.0383 3.15048 12.0283 2.75389 11.8977 2.3897C11.767 2.02551 11.5225 1.71306 11.2005 1.49859C10.8784 1.28412 10.4959 1.17902 10.1095 1.19884C9.72307 1.21866 9.35329 1.36235 9.05488 1.60865C8.75647 1.85495 8.54527 2.19077 8.45254 2.56643C8.35982 2.94208 8.39048 3.3376 8.54 3.69447C8.33873 3.61074 8.11801 3.58509 7.9029 3.62044C7.68779 3.65579 7.48689 3.75073 7.323 3.89447L4.84175 5.86947C4.533 6.13222 4.3805 6.48972 4.4025 6.86797C4.41249 7.05342 4.46571 7.23397 4.5579 7.39519C4.6501 7.5564 4.77873 7.69382 4.9335 7.79647L6.8 9.04222V11.2C6.8 11.5182 6.92643 11.8235 7.15147 12.0485C7.37652 12.2735 7.68174 12.4 8 12.4C8.31826 12.4 8.62348 12.2735 8.84853 12.0485C9.07357 11.8235 9.2 11.5182 9.2 11.2V8.39997C9.2002 8.2026 9.15163 8.00824 9.0586 7.83417C8.96557 7.6601 8.83096 7.51172 8.66675 7.40222L8.3335 7.17722L8.746 6.85922L9.35825 7.34472ZM10.2 1.99997C10.3978 1.99997 10.5911 2.05862 10.7556 2.1685C10.92 2.27838 11.0482 2.43456 11.1239 2.61729C11.1996 2.80001 11.2194 3.00108 11.1808 3.19506C11.1422 3.38904 11.047 3.56723 10.9071 3.70708C10.7673 3.84693 10.5891 3.94217 10.3951 3.98076C10.2011 4.01934 10 3.99954 9.81732 3.92385C9.63459 3.84816 9.47841 3.71999 9.36853 3.55554C9.25865 3.39109 9.2 3.19775 9.2 2.99997C9.2 2.73476 9.30536 2.4804 9.49289 2.29287C9.68043 2.10533 9.93478 1.99997 10.2 1.99997ZM8.22225 8.06722C8.27696 8.10379 8.32181 8.15328 8.35282 8.21133C8.38382 8.26937 8.40003 8.33417 8.4 8.39997V11.2C8.4 11.3061 8.35786 11.4078 8.28284 11.4828C8.20783 11.5578 8.10609 11.6 8 11.6C7.89391 11.6 7.79217 11.5578 7.71716 11.4828C7.64214 11.4078 7.6 11.3061 7.6 11.2V8.61397L5.37825 7.13272C5.3269 7.09846 5.28417 7.05277 5.25342 6.99924C5.22267 6.9457 5.20473 6.88578 5.201 6.82416C5.19727 6.76254 5.20786 6.70089 5.23193 6.64404C5.256 6.58719 5.2929 6.53668 5.33975 6.49647L7.84475 4.50197C7.91542 4.44135 8.00503 4.40728 8.09813 4.40563C8.19123 4.40399 8.28198 4.43488 8.35475 4.49297L10.2455 6.00547H11.6C11.7061 6.00547 11.8078 6.04762 11.8828 6.12263C11.9579 6.19764 12 6.29939 12 6.40547C12 6.51156 11.9579 6.6133 11.8828 6.68832C11.8078 6.76333 11.7061 6.80547 11.6 6.80547H10.105C10.0141 6.80554 9.92598 6.77468 9.855 6.71797L8.75275 5.84297L6.9675 7.22147L8.22225 8.06722ZM3.2 9.39997C2.92311 9.39997 2.65243 9.48208 2.4222 9.63592C2.19197 9.78975 2.01253 10.0084 1.90657 10.2642C1.80061 10.52 1.77288 10.8015 1.8269 11.0731C1.88092 11.3447 2.01426 11.5941 2.21005 11.7899C2.40584 11.9857 2.6553 12.1191 2.92687 12.1731C3.19845 12.2271 3.47994 12.1994 3.73576 12.0934C3.99157 11.9874 4.21022 11.808 4.36406 11.5778C4.51789 11.3475 4.6 11.0769 4.6 10.8C4.5996 10.4288 4.45198 10.0729 4.18951 9.81046C3.92705 9.548 3.57118 9.40037 3.2 9.39997ZM3.2 11.4C3.08133 11.4 2.96533 11.3648 2.86666 11.2989C2.76799 11.2329 2.69108 11.1392 2.64567 11.0296C2.60026 10.9199 2.58838 10.7993 2.61153 10.6829C2.63468 10.5665 2.69182 10.4596 2.77574 10.3757C2.85965 10.2918 2.96656 10.2347 3.08295 10.2115C3.19933 10.1884 3.31997 10.2002 3.42961 10.2456C3.53925 10.2911 3.63295 10.368 3.69888 10.4666C3.76481 10.5653 3.8 10.6813 3.8 10.8C3.8 10.9591 3.73679 11.1117 3.62426 11.2242C3.51174 11.3368 3.35913 11.4 3.2 11.4ZM15.425 9.72072C15.4228 9.71597 15.4213 9.71122 15.4187 9.70647C15.5066 9.56287 15.5437 9.39386 15.5238 9.22667C15.504 9.05947 15.4285 8.9038 15.3095 8.78472L14.8142 8.28972C14.6938 8.17297 14.5384 8.09899 14.3718 8.07916C14.2052 8.05934 14.0367 8.09475 13.8923 8.17997L13.8783 8.17422C13.8388 8.01071 13.7456 7.86519 13.6135 7.76104C13.4814 7.6569 13.3182 7.60017 13.15 7.59997H12.45C12.2816 7.6001 12.1182 7.65688 11.986 7.76118C11.8538 7.86548 11.7605 8.01124 11.7213 8.17497L11.7065 8.18122C11.5627 8.09396 11.3938 8.05735 11.2267 8.07724C11.0597 8.09713 10.9041 8.17237 10.7848 8.29097L10.29 8.78597C10.1713 8.90522 10.0961 9.06081 10.0763 9.22786C10.0565 9.39492 10.0933 9.56379 10.1808 9.70747C10.1784 9.71216 10.1763 9.71701 10.1745 9.72197C10.0111 9.76157 9.86571 9.85481 9.76156 9.98679C9.65742 10.1188 9.60053 10.2819 9.6 10.45V11.15C9.60036 11.3184 9.65723 11.4817 9.76148 11.614C9.86574 11.7462 10.0114 11.8396 10.175 11.8792C10.1765 11.884 10.179 11.889 10.1805 11.8937C10.0932 12.0375 10.0565 12.2064 10.0765 12.3735C10.0964 12.5405 10.1718 12.696 10.2905 12.8152L10.7853 13.3102C10.9046 13.4288 11.0602 13.5041 11.2272 13.524C11.3943 13.5438 11.5632 13.5072 11.707 13.42L11.7218 13.4257C11.7612 13.5892 11.8544 13.7348 11.9865 13.8389C12.1186 13.9431 12.2818 13.9998 12.45 14H13.15C13.3184 13.9999 13.4819 13.9431 13.6142 13.8388C13.7464 13.7345 13.8397 13.5888 13.879 13.425L13.8938 13.4192C14.0376 13.5066 14.2066 13.5433 14.3737 13.5234C14.5408 13.5035 14.6965 13.4282 14.8158 13.3095L15.3102 12.8145C15.4289 12.6952 15.5042 12.5397 15.524 12.3726C15.5438 12.2055 15.507 12.0366 15.4195 11.893C15.422 11.8883 15.4241 11.8835 15.4258 11.8785C15.5892 11.8388 15.7345 11.7454 15.8386 11.6134C15.9427 11.4813 15.9996 11.3181 16 11.15V10.45C16 10.2815 15.9433 10.1179 15.8389 9.98565C15.7346 9.85335 15.5888 9.76003 15.425 9.72072ZM14.84 11.1L14.754 11.3847C14.7139 11.5169 14.6608 11.6448 14.5955 11.7665L14.4525 12.0297L14.665 12.2405L14.7445 12.2495L14.3195 12.7445L14.028 12.4527L13.7655 12.5952C13.6442 12.6609 13.5165 12.7138 13.3842 12.753L13.1 12.8387V13.1362L13.15 13.2L12.5 13.25V12.8387L12.2148 12.753C12.0824 12.7134 11.9544 12.6605 11.8328 12.595L11.571 12.453L11.3603 12.664L11.35 12.7445L10.855 12.3207L11.15 12.029L11.0055 11.7652C10.94 11.6439 10.8871 11.5163 10.8475 11.3842L10.7605 11.1H10.4635L10.4 11.15L10.35 10.5H10.7603L10.846 10.2152C10.8861 10.083 10.9393 9.95513 11.0048 9.83347L11.1477 9.57022L10.9353 9.35922L10.8555 9.35022L11.2805 8.85547L11.5717 9.14722L11.8343 9.00472C11.9552 8.93892 12.0827 8.88596 12.2148 8.84672L12.5008 8.76172V8.46372L12.45 8.39997L13.1 8.34997V8.76122L13.385 8.84672C13.5176 8.88668 13.6458 8.93986 13.7678 9.00547L14.031 9.14672L14.2413 8.93472L14.249 8.85547L14.745 9.27922L14.453 9.57022L14.5953 9.83322C14.6603 9.9545 14.7129 10.0821 14.7523 10.214L14.8375 10.5H15.204L15.25 11.1H14.84ZM5.82625 9.72097C5.8239 9.71618 5.82181 9.71125 5.82 9.70622C5.90717 9.56239 5.9437 9.39352 5.92377 9.22652C5.90383 9.05952 5.82858 8.90399 5.71 8.78472L5.21525 8.28972C4.97475 8.04847 4.57625 8.00697 4.2935 8.17997L4.27875 8.17422C4.23932 8.01062 4.14601 7.86504 4.01383 7.76089C3.88165 7.65673 3.71828 7.60006 3.55 7.59997H2.85C2.68161 7.6001 2.51817 7.65688 2.38598 7.76118C2.25379 7.86548 2.16054 8.01124 2.12125 8.17497L2.10725 8.18072C1.96342 8.09331 1.79444 8.05661 1.62731 8.07651C1.46018 8.0964 1.30454 8.17174 1.18525 8.29047L0.69 8.78547C0.571087 8.90473 0.495676 9.06046 0.475864 9.2277C0.456053 9.39494 0.49299 9.56399 0.58075 9.70772C0.57925 9.71197 0.57675 9.71672 0.57525 9.72147C0.411508 9.7607 0.265731 9.85389 0.161384 9.98604C0.0570374 10.1182 0.000192548 10.2816 0 10.45L0 11.15C0.000231498 11.3184 0.0570456 11.4818 0.161322 11.6141C0.265597 11.7463 0.411286 11.8397 0.575 11.8792C0.57631 11.884 0.578155 11.8886 0.5805 11.893C0.492784 12.0367 0.455872 12.2058 0.475682 12.373C0.495492 12.5402 0.570876 12.6959 0.68975 12.8152L1.185 13.3102C1.30424 13.4291 1.45993 13.5045 1.62711 13.5243C1.7943 13.5441 1.96329 13.5072 2.107 13.4195C2.11179 13.4218 2.11672 13.4239 2.12175 13.4257C2.16116 13.5892 2.2544 13.7348 2.38648 13.8389C2.51855 13.9431 2.6818 13.9998 2.85 14H3.55C3.71843 13.9999 3.88193 13.9431 4.01417 13.8388C4.14642 13.7345 4.2397 13.5888 4.279 13.425L4.29375 13.4192C4.575 13.5917 4.9735 13.5507 5.21475 13.3095L5.71025 12.8145C5.82891 12.6952 5.90415 12.5396 5.92396 12.3726C5.94376 12.2055 5.90698 12.0367 5.8195 11.893C5.82185 11.8883 5.82394 11.8834 5.82575 11.8785C5.98918 11.8388 6.13458 11.7455 6.23869 11.6134C6.3428 11.4813 6.3996 11.3181 6.4 11.15V10.4485C6.39901 10.2806 6.34203 10.1179 6.2381 9.98616C6.13417 9.85438 5.98923 9.76105 5.82625 9.72097ZM5.238 11.1L5.15275 11.3862C5.1136 11.518 5.06099 11.6454 4.99575 11.7665L4.853 12.0297L5.0655 12.2405L5.145 12.2495L4.72 12.7445L4.42875 12.4527L4.16625 12.5952C4.04497 12.6609 3.9172 12.7137 3.785 12.753L3.5 12.8387V13.1362L3.55 13.2L2.9 13.25V12.8382L2.614 12.753C2.4814 12.7132 2.35317 12.6601 2.23125 12.5945L1.968 12.453L1.75775 12.6652L1.75 12.7445L1.25475 12.3207L1.54675 12.0297L1.4045 11.7667C1.33962 11.6447 1.28678 11.5165 1.24675 11.3842L1.161 11.1H0.864L0.8 11.15L0.75 10.5H1.161L1.24675 10.2152C1.28673 10.0825 1.33991 9.9541 1.4055 9.83197L1.546 9.56947L1.335 9.35922L1.2555 9.34997L1.67875 8.85397L1.9695 9.14697L2.23275 9.00472C2.35431 8.939 2.48232 8.88597 2.61475 8.84647L2.89975 8.76097V8.46347L2.85 8.39997L3.5 8.34997V8.76172L3.786 8.84672C3.91808 8.88651 4.04581 8.93953 4.16725 9.00497L4.429 9.14672L4.63975 8.93597L4.65 8.85547L5.14375 9.28047L4.85475 9.57122L4.996 9.83297C5.06103 9.95492 5.11395 10.083 5.154 10.2152L5.2395 10.5H5.6045L5.65 11.1H5.238ZM12.8 9.39997C12.5231 9.39997 12.2524 9.48208 12.0222 9.63592C11.792 9.78975 11.6125 10.0084 11.5066 10.2642C11.4006 10.52 11.3729 10.8015 11.4269 11.0731C11.4809 11.3447 11.6143 11.5941 11.8101 11.7899C12.0058 11.9857 12.2553 12.1191 12.5269 12.1731C12.7984 12.2271 13.0799 12.1994 13.3358 12.0934C13.5916 11.9874 13.8102 11.808 13.9641 11.5778C14.1179 11.3475 14.2 11.0769 14.2 10.8C14.1996 10.4288 14.052 10.0729 13.7895 9.81046C13.527 9.548 13.1712 9.40037 12.8 9.39997ZM12.8 11.4C12.6813 11.4 12.5653 11.3648 12.4667 11.2989C12.368 11.2329 12.2911 11.1392 12.2457 11.0296C12.2003 10.9199 12.1884 10.7993 12.2115 10.6829C12.2347 10.5665 12.2918 10.4596 12.3757 10.3757C12.4596 10.2918 12.5666 10.2347 12.6829 10.2115C12.7993 10.1884 12.92 10.2002 13.0296 10.2456C13.1392 10.2911 13.233 10.368 13.2989 10.4666C13.3648 10.5653 13.4 10.6813 13.4 10.8C13.4 10.9591 13.3368 11.1117 13.2243 11.2242C13.1117 11.3368 12.9591 11.4 12.8 11.4Z" fill="#585858"/>
</g>
<defs>
<clipPath id="clip0_60_4390">
<rect width="16" height="12.8" fill="white" transform="translate(0 1.19995)"/>
</clipPath>
</defs>
</svg>
