<svg width="16" height="16" viewBox="0 0 16 16" fill="none" xmlns="http://www.w3.org/2000/svg">
<g clip-path="url(#clip0_60_6764)">
<path d="M12.8802 7.72813L12.2677 7.06875L11.9958 6.17812C11.749 5.3625 11.2677 4.68437 10.6458 4.21562C11.249 3.79687 11.6458 3.1 11.6458 2.3125C11.6458 1.0375 10.6083 0 9.33333 0C8.05833 0 7.02083 1.0375 7.02083 2.3125C7.02083 2.80312 7.17396 3.25938 7.43646 3.63438C6.97708 3.75313 6.54896 3.94062 6.02083 4.17812L5.75208 4.29688C5.00208 4.625 4.39583 5.2375 4.03646 6.02187L3.66771 6.89687C3.43958 7.43437 3.48958 8.0125 3.79896 8.48125C4.10208 8.9375 4.62083 9.21875 5.15833 9.21875C5.54896 9.21875 5.90833 9.07188 6.18646 8.81563C6.19271 8.85938 6.19896 8.9 6.20521 8.94375L5.76146 10.1594L5.25208 11.5531L3.77083 13.1906C3.18646 13.8281 3.18646 14.8281 3.77083 15.4688C4.07083 15.7969 4.49583 15.9875 4.93333 15.9875C5.37083 15.9875 5.79583 15.8 6.09583 15.4688L7.55521 13.8687C7.85521 13.5375 8.08646 13.1531 8.24271 12.7281L8.51458 11.9812L8.84583 12.3156C8.86146 12.3313 8.87083 12.3562 8.87396 12.375L9.36146 14.6938C9.52083 15.4531 10.1771 16 10.9208 16C11.0458 16 11.174 15.9844 11.299 15.9531C12.1552 15.7375 12.674 14.8719 12.4865 13.9875L11.999 11.6719C11.9115 11.2594 11.7552 10.8719 11.5396 10.525C11.5958 10.5312 11.6521 10.5344 11.7115 10.5344C12.3458 10.5344 12.9271 10.1406 13.1927 9.52812C13.4615 8.91875 13.3396 8.22812 12.8802 7.72813ZM9.33333 1C10.0583 1 10.6458 1.5875 10.6458 2.3125C10.6458 3.0375 10.0583 3.625 9.33333 3.625C8.60833 3.625 8.02083 3.0375 8.02083 2.3125C8.02083 1.5875 8.60833 1 9.33333 1ZM7.30208 12.3844C7.19271 12.6875 7.02708 12.9594 6.81458 13.1938L5.35521 14.7937C5.23958 14.9219 5.08646 14.9875 4.93021 14.9875C4.77708 14.9875 4.62396 14.9219 4.50521 14.7937C4.27083 14.5375 4.27083 14.1219 4.50521 13.8656L5.96458 12.2656C6.06146 12.1594 6.13646 12.0344 6.18646 11.8969L6.69583 10.5031L6.69896 10.5063L6.73021 10.5437L7.63646 11.4594L7.30208 12.3844ZM11.7115 9.5375C11.574 9.5375 11.4302 9.48125 11.3052 9.34375L10.5708 8.55313C10.4146 8.38438 10.2958 8.175 10.2271 7.94688C9.87083 6.775 9.86771 6.7 9.68021 6.43125L9.02708 9.29688L10.3708 10.6531C10.6958 10.9844 10.924 11.4094 11.0208 11.8813L11.5083 14.1969C11.5833 14.55 11.3833 14.9031 11.0583 14.9844C11.0115 14.9969 10.9646 15 10.9208 15C10.6271 15 10.399 14.7625 10.3396 14.4906L9.85208 12.1719C9.80833 11.9563 9.70521 11.7656 9.55521 11.6156L7.58333 9.61875C7.22083 9.1875 7.09271 8.64375 7.21146 8.12813L7.70521 5.9625C7.42396 6.0625 7.13958 6.19063 6.59896 6.43125C6.34896 6.54063 6.14583 6.74375 6.02708 7.00625L5.67708 7.8375C5.56146 8.10938 5.36146 8.22188 5.15833 8.22188C4.76771 8.22188 4.37083 7.80312 4.58958 7.2875L4.94896 6.4375C5.20833 5.86875 5.63333 5.44063 6.15521 5.2125C7.22396 4.74062 7.67708 4.5 8.54896 4.5C9.68333 4.5 10.6833 5.29063 11.0427 6.46875L11.3646 7.52812C11.374 7.55937 11.3896 7.59062 11.4146 7.61562L12.1458 8.40625C12.5865 8.88437 12.174 9.5375 11.7115 9.5375Z" fill="#585858"/>
</g>
<defs>
<clipPath id="clip0_60_6764">
<rect width="10" height="16" fill="white" transform="translate(3.33334)"/>
</clipPath>
</defs>
</svg>
