<svg width="16" height="16" viewBox="0 0 16 16" fill="none" xmlns="http://www.w3.org/2000/svg">
<g clip-path="url(#clip0_60_4278)">
<path d="M3 7.99997C2.40666 7.99997 1.82664 8.17592 1.33329 8.50556C0.839943 8.83521 0.455426 9.30374 0.228363 9.85192C0.00129986 10.4001 -0.0581102 11.0033 0.0576455 11.5852C0.173401 12.1672 0.459123 12.7017 0.878681 13.1213C1.29824 13.5409 1.83279 13.8266 2.41473 13.9423C2.99667 14.0581 3.59987 13.9987 4.14805 13.7716C4.69623 13.5445 5.16477 13.16 5.49441 12.6667C5.82405 12.1733 6 11.5933 6 11C6 10.2043 5.68393 9.44126 5.12132 8.87865C4.55871 8.31604 3.79565 7.99997 3 7.99997ZM3 13.2C2.56488 13.2 2.13953 13.0709 1.77775 12.8292C1.41596 12.5875 1.13398 12.2439 0.967466 11.8419C0.800954 11.4399 0.757386 10.9975 0.842274 10.5708C0.927161 10.144 1.13669 9.75201 1.44437 9.44434C1.75204 9.13666 2.14404 8.92713 2.5708 8.84224C2.99756 8.75736 3.43991 8.80093 3.84191 8.96744C4.2439 9.13395 4.5875 9.41593 4.82923 9.77772C5.07097 10.1395 5.2 10.5649 5.2 11C5.19934 11.5832 4.96734 12.1424 4.55491 12.5549C4.14247 12.9673 3.58327 13.1993 3 13.2ZM13 7.99997C12.4067 7.99997 11.8266 8.17592 11.3333 8.50556C10.8399 8.83521 10.4554 9.30374 10.2284 9.85192C10.0013 10.4001 9.94189 11.0033 10.0576 11.5852C10.1734 12.1672 10.4591 12.7017 10.8787 13.1213C11.2982 13.5409 11.8328 13.8266 12.4147 13.9423C12.9967 14.0581 13.5999 13.9987 14.1481 13.7716C14.6962 13.5445 15.1648 13.16 15.4944 12.6667C15.8241 12.1733 16 11.5933 16 11C16 10.2043 15.6839 9.44126 15.1213 8.87865C14.5587 8.31604 13.7957 7.99997 13 7.99997ZM13 13.2C12.5649 13.2 12.1395 13.0709 11.7777 12.8292C11.416 12.5875 11.134 12.2439 10.9675 11.8419C10.801 11.4399 10.7574 10.9975 10.8423 10.5708C10.9272 10.144 11.1367 9.75201 11.4444 9.44434C11.752 9.13666 12.144 8.92713 12.5708 8.84224C12.9976 8.75736 13.4399 8.80093 13.8419 8.96744C14.2439 9.13395 14.5875 9.41593 14.8292 9.77772C15.071 10.1395 15.2 10.5649 15.2 11C15.1993 11.5832 14.9673 12.1424 14.5549 12.5549C14.1425 12.9673 13.5833 13.1993 13 13.2ZM9.35775 7.34472C9.57036 7.51331 9.83366 7.60519 10.105 7.60547H11.6C11.9183 7.60547 12.2235 7.47904 12.4485 7.254C12.6736 7.02896 12.8 6.72373 12.8 6.40547C12.8 6.08721 12.6736 5.78199 12.4485 5.55694C12.2235 5.3319 11.9183 5.20547 11.6 5.20547H10.5263L9.99325 4.77922C10.0617 4.79022 10.1307 4.79715 10.2 4.79997C10.5869 4.80036 10.9637 4.67617 11.2746 4.44579C11.5854 4.21541 11.8139 3.89107 11.9261 3.52078C12.0383 3.15048 12.0283 2.75389 11.8977 2.3897C11.767 2.02551 11.5225 1.71306 11.2005 1.49859C10.8784 1.28412 10.4959 1.17902 10.1095 1.19884C9.72307 1.21866 9.35329 1.36235 9.05488 1.60865C8.75647 1.85495 8.54527 2.19077 8.45255 2.56643C8.35982 2.94208 8.39048 3.3376 8.54 3.69447C8.33869 3.61074 8.11793 3.5851 7.90278 3.62045C7.68763 3.6558 7.48669 3.75073 7.32275 3.89447L4.8415 5.86947C4.53275 6.13222 4.38025 6.48972 4.40225 6.86797C4.41224 7.05342 4.46546 7.23397 4.55766 7.39518C4.64985 7.5564 4.77848 7.69382 4.93325 7.79647L6.8 9.04222V11.2C6.8 11.5182 6.92643 11.8235 7.15147 12.0485C7.37652 12.2735 7.68174 12.4 8 12.4C8.31826 12.4 8.62349 12.2735 8.84853 12.0485C9.07357 11.8235 9.2 11.5182 9.2 11.2V8.39997C9.2002 8.2026 9.15163 8.00824 9.0586 7.83417C8.96557 7.6601 8.83096 7.51172 8.66675 7.40222L8.3335 7.17722L8.746 6.85922L9.35775 7.34472ZM10.2 1.99997C10.3978 1.99997 10.5911 2.05862 10.7556 2.1685C10.92 2.27838 11.0482 2.43456 11.1239 2.61729C11.1996 2.80001 11.2194 3.00108 11.1808 3.19506C11.1422 3.38904 11.047 3.56723 10.9071 3.70708C10.7673 3.84693 10.5891 3.94217 10.3951 3.98076C10.2011 4.01934 10 3.99954 9.81732 3.92385C9.63459 3.84816 9.47841 3.71999 9.36853 3.55554C9.25865 3.39109 9.2 3.19775 9.2 2.99997C9.2 2.73476 9.30536 2.4804 9.4929 2.29287C9.68043 2.10533 9.93478 1.99997 10.2 1.99997ZM8.222 8.06722C8.27676 8.10376 8.32166 8.15324 8.35271 8.21129C8.38376 8.26933 8.4 8.33414 8.4 8.39997V11.2C8.4 11.3061 8.35786 11.4078 8.28284 11.4828C8.20783 11.5578 8.10609 11.6 8 11.6C7.89392 11.6 7.79217 11.5578 7.71716 11.4828C7.64214 11.4078 7.6 11.3061 7.6 11.2V8.61397L5.378 7.13272C5.32667 7.09843 5.28396 7.05273 5.25324 6.99919C5.22251 6.94565 5.20459 6.88572 5.20089 6.8241C5.19718 6.76247 5.20779 6.70083 5.23188 6.64399C5.25597 6.58715 5.29289 6.53666 5.33975 6.49647L7.84475 4.50197C7.91544 4.44128 8.0051 4.40717 8.09826 4.40553C8.19141 4.40389 8.28222 4.43481 8.355 4.49297L10.2455 6.00547H11.6C11.7061 6.00547 11.8078 6.04762 11.8828 6.12263C11.9579 6.19764 12 6.29939 12 6.40547C12 6.51156 11.9579 6.6133 11.8828 6.68831C11.8078 6.76333 11.7061 6.80547 11.6 6.80547H10.105C10.0141 6.80554 9.92598 6.77468 9.855 6.71797L8.75275 5.84297L6.967 7.22072L8.222 8.06722Z" fill="#585858"/>
</g>
<defs>
<clipPath id="clip0_60_4278">
<rect width="16" height="12.8" fill="white" transform="translate(0 1.19995)"/>
</clipPath>
</defs>
</svg>
