<svg width="18" height="18" viewBox="0 0 18 18" fill="none" xmlns="http://www.w3.org/2000/svg">
<path d="M9.00001 3.15001C9.00001 2.90251 9.20251 2.70001 9.45001 2.70001H11.7C11.9081 2.70001 12.091 2.84345 12.1388 3.04595L13.9388 10.6959L13.9641 10.8C15.2016 10.8056 16.2028 11.8125 16.2028 13.05C16.2028 14.2931 15.196 15.3 13.9528 15.3C12.8644 15.3 11.956 14.5266 11.7478 13.5H6.25783C6.0497 14.5266 5.14126 15.3 4.05283 15.3C2.8097 15.3 1.80283 14.2931 1.80283 13.05C1.80283 11.8069 2.8097 10.8 4.05283 10.8C5.14126 10.8 6.0497 11.5734 6.25783 12.6H11.7478C11.8969 11.8631 12.406 11.2584 13.081 10.9744L13.0641 10.9013L11.3456 3.5972H9.45283C9.20533 3.5972 9.00283 3.3947 9.00283 3.1472L9.00001 3.15001ZM5.40001 13.05C5.40001 12.3047 4.79533 11.7 4.05001 11.7C3.3047 11.7 2.70001 12.3047 2.70001 13.05C2.70001 13.7953 3.3047 14.4 4.05001 14.4C4.79533 14.4 5.40001 13.7953 5.40001 13.05ZM12.6 13.05C12.6 13.7953 13.2047 14.4 13.95 14.4C14.6953 14.4 15.3 13.7953 15.3 13.05C15.3 12.3047 14.6953 11.7 13.95 11.7C13.2047 11.7 12.6 12.3047 12.6 13.05Z" fill="#585858"/>
</svg>
