<svg width="16" height="16" viewBox="0 0 16 16" fill="none" xmlns="http://www.w3.org/2000/svg">
<path d="M15.8 10.8001H15.2V8.09756C15.2 7.67756 15.03 7.26506 14.73 6.96756L12.6325 4.87006C12.3375 4.57006 11.925 4.40006 11.5025 4.40006H10.4V3.16506C10.4 2.52256 9.845 2.00006 9.165 2.00006H1.235C0.555 2.00006 0 2.52256 0 3.16506V10.4351C0 11.0776 0.555 11.6001 1.235 11.6001H1.64C1.6125 11.7301 1.6 11.8626 1.6 12.0001C1.6 13.1051 2.495 14.0001 3.6 14.0001C4.705 14.0001 5.6 13.1051 5.6 12.0001C5.6 11.8626 5.585 11.7301 5.56 11.6001H10.44C10.4125 11.7301 10.4 11.8626 10.4 12.0001C10.4 13.1051 11.295 14.0001 12.4 14.0001C13.505 14.0001 14.4 13.1051 14.4 12.0001C14.4 11.8626 14.385 11.7301 14.36 11.6001H15.8C15.91 11.6001 16 11.5101 16 11.4001V11.0001C16 10.8901 15.91 10.8001 15.8 10.8001ZM11.5025 5.20006C11.7125 5.20006 11.92 5.28506 12.0675 5.43506L14.165 7.53256C14.185 7.55256 14.1925 7.58006 14.21 7.60256H10.4V5.20256H11.5025V5.20006ZM3.6 13.2001C2.9375 13.2001 2.4 12.6626 2.4 12.0001C2.4 11.3376 2.9375 10.8001 3.6 10.8001C4.2625 10.8001 4.8 11.3376 4.8 12.0001C4.8 12.6626 4.2625 13.2001 3.6 13.2001ZM5.19 10.8001C4.825 10.3176 4.25 10.0001 3.6 10.0001C2.95 10.0001 2.375 10.3176 2.01 10.8001H1.235C0.995 10.8001 0.8 10.6376 0.8 10.4351V3.16506C0.8 2.96256 0.995 2.80006 1.235 2.80006H9.165C9.405 2.80006 9.6 2.96256 9.6 3.16506V10.8001H5.19ZM12.4 13.2001C11.7375 13.2001 11.2 12.6626 11.2 12.0001C11.2 11.3376 11.7375 10.8001 12.4 10.8001C13.0625 10.8001 13.6 11.3376 13.6 12.0001C13.6 12.6626 13.0625 13.2001 12.4 13.2001ZM12.4 10.0001C11.7475 10.0001 11.175 10.3176 10.81 10.8001H10.4V8.40006H14.4V10.8001H13.99C13.625 10.3176 13.0525 10.0001 12.4 10.0001Z" fill="#585858"/>
</svg>
